<?xml version="1.0" encoding="UTF-8" standalone="no"?>
<!DOCTYPE svg PUBLIC "-//W3C//DTD SVG 1.1//EN" "http://www.w3.org/Graphics/SVG/1.1/DTD/svg11.dtd">
<svg width="100%" height="100%" viewBox="0 0 900 1200" version="1.1" xmlns="http://www.w3.org/2000/svg" xmlns:xlink="http://www.w3.org/1999/xlink" xml:space="preserve" style="fill-rule:evenodd;clip-rule:evenodd;stroke-linecap:round;stroke-linejoin:round;stroke-miterlimit:1.5;">
    <g transform="matrix(4.31919,0,0,4.31919,-1744.02,-1387.65)">
        <path d="M405.378,324.362L406.261,595.74L611.146,323.845L405.378,324.362Z" style="fill:rgb(235,235,235);"/>
    </g>
    <g transform="matrix(-4.31919,-0.00138542,0.00138542,-4.31919,2645.9,2584.91)">
        <path d="M405.378,324.362L406.261,595.74L611.146,323.845L405.378,324.362Z"/>
    </g>
    <g transform="matrix(3.20453,0,0,3.20453,-1794.19,-1493.26)">
        <circle cx="700.73" cy="652.772" r="88.69"/>
    </g>
    <g transform="matrix(1.58979,0,0,1.60771,-522.723,-1163.6)">
        <circle cx="612.487" cy="1095.67" r="165.052" style="fill:white;stroke:black;stroke-width:1.95px;"/>
    </g>
    <g transform="matrix(1.18029,0,0,1.18029,177.836,-275.075)">
        <rect x="158.565" y="667.036" width="143.405" height="143.405" style="fill:white;stroke:black;stroke-width:2.65px;"/>
    </g>
    <g transform="matrix(1.18029,0,0,1.18029,222.964,-157.441)">
        <rect x="131.688" y="578.82" width="121.224" height="121.224" style="fill:white;stroke:black;stroke-width:5.3px;"/>
    </g>
    <g transform="matrix(1.18029,0,0,1.18029,221.784,-157.441)">
        <g transform="matrix(1,0,0,1,66,-12)">
            <rect x="64.579" y="548.793" width="4.979" height="28.808" style="stroke:black;stroke-width:2.65px;"/>
        </g>
        <g transform="matrix(1,0,0,1,86,-12)">
            <rect x="64.579" y="548.793" width="4.979" height="28.808" style="stroke:black;stroke-width:2.65px;"/>
        </g>
        <g transform="matrix(1,0,0,1,106,-12)">
            <rect x="64.579" y="548.793" width="4.979" height="28.808" style="stroke:black;stroke-width:2.65px;"/>
        </g>
        <g transform="matrix(1,0,0,1,126,-12)">
            <rect x="64.579" y="548.793" width="4.979" height="28.808" style="stroke:black;stroke-width:2.65px;"/>
        </g>
        <g transform="matrix(1,0,0,1,146,-12)">
            <rect x="64.579" y="548.793" width="4.979" height="28.808" style="stroke:black;stroke-width:2.65px;"/>
        </g>
        <g transform="matrix(1,0,0,1,166,-12)">
            <rect x="64.579" y="548.793" width="4.979" height="28.808" style="stroke:black;stroke-width:2.65px;"/>
        </g>
        <g transform="matrix(1,0,0,1,186,-12)">
            <rect x="64.579" y="548.793" width="4.979" height="28.808" style="stroke:black;stroke-width:2.65px;"/>
        </g>
    </g>
    <g transform="matrix(7.22718e-17,1.18029,-1.18029,7.22718e-17,1202.92,371.48)">
        <g>
            <g>
                <g transform="matrix(1,0,0,1,66,-12)">
                    <rect x="64.579" y="548.793" width="4.979" height="28.808" style="stroke:black;stroke-width:2.65px;"/>
                </g>
                <g transform="matrix(1,0,0,1,86,-12)">
                    <rect x="64.579" y="548.793" width="4.979" height="28.808" style="stroke:black;stroke-width:2.65px;"/>
                </g>
                <g transform="matrix(1,0,0,1,106,-12)">
                    <rect x="64.579" y="548.793" width="4.979" height="28.808" style="stroke:black;stroke-width:2.65px;"/>
                </g>
                <g transform="matrix(1,0,0,1,126,-12)">
                    <rect x="64.579" y="548.793" width="4.979" height="28.808" style="stroke:black;stroke-width:2.65px;"/>
                </g>
                <g transform="matrix(1,0,0,1,146,-12)">
                    <rect x="64.579" y="548.793" width="4.979" height="28.808" style="stroke:black;stroke-width:2.65px;"/>
                </g>
                <g transform="matrix(1,0,0,1,166,-12)">
                    <rect x="64.579" y="548.793" width="4.979" height="28.808" style="stroke:black;stroke-width:2.65px;"/>
                </g>
                <g transform="matrix(1,0,0,1,186,-12)">
                    <rect x="64.579" y="548.793" width="4.979" height="28.808" style="stroke:black;stroke-width:2.65px;"/>
                </g>
            </g>
        </g>
    </g>
    <g transform="matrix(7.22718e-17,1.18029,-1.18029,7.22718e-17,997.545,371.48)">
        <g>
            <g>
                <g transform="matrix(1,0,0,1,66,-12)">
                    <rect x="64.579" y="548.793" width="4.979" height="28.808" style="stroke:black;stroke-width:2.65px;"/>
                </g>
                <g transform="matrix(1,0,0,1,86,-12)">
                    <rect x="64.579" y="548.793" width="4.979" height="28.808" style="stroke:black;stroke-width:2.65px;"/>
                </g>
                <g transform="matrix(1,0,0,1,106,-12)">
                    <rect x="64.579" y="548.793" width="4.979" height="28.808" style="stroke:black;stroke-width:2.65px;"/>
                </g>
                <g transform="matrix(1,0,0,1,126,-12)">
                    <rect x="64.579" y="548.793" width="4.979" height="28.808" style="stroke:black;stroke-width:2.65px;"/>
                </g>
                <g transform="matrix(1,0,0,1,146,-12)">
                    <rect x="64.579" y="548.793" width="4.979" height="28.808" style="stroke:black;stroke-width:2.65px;"/>
                </g>
                <g transform="matrix(1,0,0,1,166,-12)">
                    <rect x="64.579" y="548.793" width="4.979" height="28.808" style="stroke:black;stroke-width:2.65px;"/>
                </g>
                <g transform="matrix(1,0,0,1,186,-12)">
                    <rect x="64.579" y="548.793" width="4.979" height="28.808" style="stroke:black;stroke-width:2.65px;"/>
                </g>
            </g>
        </g>
    </g>
    <g transform="matrix(1.18029,0,0,1.18029,221.784,-157.441)">
        <g transform="matrix(1,0,0,1,66,162)">
            <rect x="64.579" y="548.793" width="4.979" height="28.808" style="stroke:black;stroke-width:2.65px;"/>
        </g>
        <g transform="matrix(1,0,0,1,86,162)">
            <rect x="64.579" y="548.793" width="4.979" height="28.808" style="stroke:black;stroke-width:2.65px;"/>
        </g>
        <g transform="matrix(1,0,0,1,106,162)">
            <rect x="64.579" y="548.793" width="4.979" height="28.808" style="stroke:black;stroke-width:2.65px;"/>
        </g>
        <g transform="matrix(1,0,0,1,126,162)">
            <rect x="64.579" y="548.793" width="4.979" height="28.808" style="stroke:black;stroke-width:2.65px;"/>
        </g>
        <g transform="matrix(1,0,0,1,146,162)">
            <rect x="64.579" y="548.793" width="4.979" height="28.808" style="stroke:black;stroke-width:2.65px;"/>
        </g>
        <g transform="matrix(1,0,0,1,166,162)">
            <rect x="64.579" y="548.793" width="4.979" height="28.808" style="stroke:black;stroke-width:2.65px;"/>
        </g>
        <g transform="matrix(1,0,0,1,186,162)">
            <rect x="64.579" y="548.793" width="4.979" height="28.808" style="stroke:black;stroke-width:2.65px;"/>
        </g>
    </g>
    <g transform="matrix(1.18029,0,0,1.18029,221.784,-157.441)">
        <g transform="matrix(1,0,0,1,66,162)">
            <rect x="64.579" y="548.793" width="4.979" height="28.808" style="stroke:black;stroke-width:2.65px;"/>
        </g>
        <g transform="matrix(1,0,0,1,86,162)">
            <rect x="64.579" y="548.793" width="4.979" height="28.808" style="stroke:black;stroke-width:2.65px;"/>
        </g>
        <g transform="matrix(1,0,0,1,106,162)">
            <rect x="64.579" y="548.793" width="4.979" height="28.808" style="stroke:black;stroke-width:2.65px;"/>
        </g>
        <g transform="matrix(1,0,0,1,126,162)">
            <rect x="64.579" y="548.793" width="4.979" height="28.808" style="stroke:black;stroke-width:2.65px;"/>
        </g>
        <g transform="matrix(1,0,0,1,146,162)">
            <rect x="64.579" y="548.793" width="4.979" height="28.808" style="stroke:black;stroke-width:2.65px;"/>
        </g>
        <g transform="matrix(1,0,0,1,166,162)">
            <rect x="64.579" y="548.793" width="4.979" height="28.808" style="stroke:black;stroke-width:2.65px;"/>
        </g>
        <g transform="matrix(1,0,0,1,186,162)">
            <rect x="64.579" y="548.793" width="4.979" height="28.808" style="stroke:black;stroke-width:2.65px;"/>
        </g>
    </g>
    <g transform="matrix(1.4004,0,0,1.4004,-178.213,-703.269)">
        <g transform="matrix(1,0,0,1,-1,0)">
            <path d="M398.398,844.754L398.398,807.628L382.47,793.991" style="fill:none;stroke:black;stroke-width:2.23px;"/>
        </g>
        <g transform="matrix(1,0,0,1,187.732,72.8179)">
            <circle cx="191.933" cy="719.354" r="3.947" style="fill:white;stroke:black;stroke-width:2.23px;"/>
        </g>
        <g transform="matrix(1,0,0,1,327.732,72.8179)">
            <circle cx="191.933" cy="719.354" r="3.947" style="fill:white;stroke:black;stroke-width:2.23px;"/>
        </g>
        <g transform="matrix(1,0,0,1,204.732,33.8179)">
            <circle cx="191.933" cy="719.354" r="3.947" style="fill:white;stroke:black;stroke-width:2.23px;"/>
        </g>
        <g transform="matrix(1,0,0,1,219.732,-8.18209)">
            <circle cx="191.933" cy="719.354" r="3.947" style="fill:white;stroke:black;stroke-width:2.23px;"/>
        </g>
        <g transform="matrix(1,0,0,1,256.732,-28.1821)">
            <circle cx="191.933" cy="719.354" r="3.947" style="fill:white;stroke:black;stroke-width:2.23px;"/>
        </g>
        <g transform="matrix(1,0,0,1,293.732,-8.18209)">
            <circle cx="191.933" cy="719.354" r="3.947" style="fill:white;stroke:black;stroke-width:2.23px;"/>
        </g>
        <g transform="matrix(1,0,0,1,308.732,32.8179)">
            <circle cx="191.933" cy="719.354" r="3.947" style="fill:white;stroke:black;stroke-width:2.23px;"/>
        </g>
        <path d="M415.027,844.01L415.027,808.125L396.861,786.694L396.861,757.916" style="fill:none;stroke:black;stroke-width:2.23px;"/>
        <path d="M431.62,843.975L431.62,809.3L423.642,797.504L423.642,735.12L411.276,733.805L411.276,715.262" style="fill:none;stroke:black;stroke-width:2.23px;"/>
        <g transform="matrix(-1,0,0,1,898.09,0)">
            <path d="M398.398,844.754L398.398,807.628L382.47,793.991" style="fill:none;stroke:black;stroke-width:2.23px;"/>
        </g>
        <g transform="matrix(-1,0,0,1,897.09,0)">
            <path d="M415.027,844.01L415.027,808.125L396.861,786.694L396.861,757.916" style="fill:none;stroke:black;stroke-width:2.23px;"/>
        </g>
        <g transform="matrix(-1,0,0,1,897.09,0)">
            <path d="M431.62,843.975L431.62,809.3L423.642,797.504L423.642,735.12L411.276,733.805L411.276,715.262" style="fill:none;stroke:black;stroke-width:2.23px;"/>
        </g>
        <path d="M448.854,844.578L448.854,695.773" style="fill:none;stroke:black;stroke-width:2.23px;"/>
    </g>
    <g transform="matrix(1.4004,0,0,-1.4004,-178.213,1898.64)">
        <g>
            <g>
                <g transform="matrix(1,0,0,1,-1,0)">
                    <path d="M398.398,844.754L398.398,807.628L382.47,793.991" style="fill:none;stroke:black;stroke-width:2.23px;"/>
                </g>
                <g transform="matrix(1,0,0,1,187.732,72.8179)">
                    <circle cx="191.933" cy="719.354" r="3.947" style="fill:white;stroke:black;stroke-width:2.23px;"/>
                </g>
                <g transform="matrix(1,0,0,1,327.732,72.8179)">
                    <circle cx="191.933" cy="719.354" r="3.947" style="fill:white;stroke:black;stroke-width:2.23px;"/>
                </g>
                <g transform="matrix(1,0,0,1,204.732,33.8179)">
                    <circle cx="191.933" cy="719.354" r="3.947" style="fill:white;stroke:black;stroke-width:2.23px;"/>
                </g>
                <g transform="matrix(1,0,0,1,219.732,-8.18209)">
                    <circle cx="191.933" cy="719.354" r="3.947" style="fill:white;stroke:black;stroke-width:2.23px;"/>
                </g>
                <g transform="matrix(1,0,0,1,256.732,-28.1821)">
                    <circle cx="191.933" cy="719.354" r="3.947" style="fill:white;stroke:black;stroke-width:2.23px;"/>
                </g>
                <g transform="matrix(1,0,0,1,293.732,-8.18209)">
                    <circle cx="191.933" cy="719.354" r="3.947" style="fill:white;stroke:black;stroke-width:2.23px;"/>
                </g>
                <g transform="matrix(1,0,0,1,308.732,32.8179)">
                    <circle cx="191.933" cy="719.354" r="3.947" style="fill:white;stroke:black;stroke-width:2.23px;"/>
                </g>
                <path d="M415.027,844.01L415.027,808.125L396.861,786.694L396.861,757.916" style="fill:none;stroke:black;stroke-width:2.23px;"/>
                <path d="M431.62,843.975L431.62,809.3L423.642,797.504L423.642,735.12L411.276,733.805L411.276,715.262" style="fill:none;stroke:black;stroke-width:2.23px;"/>
                <g transform="matrix(-1,0,0,1,898.09,0)">
                    <path d="M398.398,844.754L398.398,807.628L382.47,793.991" style="fill:none;stroke:black;stroke-width:2.23px;"/>
                </g>
                <g transform="matrix(-1,0,0,1,897.09,0)">
                    <path d="M415.027,844.01L415.027,808.125L396.861,786.694L396.861,757.916" style="fill:none;stroke:black;stroke-width:2.23px;"/>
                </g>
                <g transform="matrix(-1,0,0,1,897.09,0)">
                    <path d="M431.62,843.975L431.62,809.3L423.642,797.504L423.642,735.12L411.276,733.805L411.276,715.262" style="fill:none;stroke:black;stroke-width:2.23px;"/>
                </g>
                <path d="M448.854,844.578L448.854,695.773" style="fill:none;stroke:black;stroke-width:2.23px;"/>
            </g>
        </g>
    </g>
    <g transform="matrix(8.57496e-17,-1.4004,-1.4004,-8.57496e-17,1751.05,1228.79)">
        <g>
            <g>
                <g transform="matrix(1,0,0,1,-1,0)">
                    <path d="M398.398,844.754L398.398,807.628L382.47,793.991" style="fill:none;stroke:black;stroke-width:2.23px;"/>
                </g>
                <g transform="matrix(1,0,0,1,187.732,72.8179)">
                    <circle cx="191.933" cy="719.354" r="3.947" style="fill:white;stroke:black;stroke-width:2.23px;"/>
                </g>
                <g transform="matrix(1,0,0,1,327.732,72.8179)">
                    <circle cx="191.933" cy="719.354" r="3.947" style="fill:white;stroke:black;stroke-width:2.23px;"/>
                </g>
                <g transform="matrix(1,0,0,1,204.732,33.8179)">
                    <circle cx="191.933" cy="719.354" r="3.947" style="fill:white;stroke:black;stroke-width:2.23px;"/>
                </g>
                <g transform="matrix(1,0,0,1,219.732,-8.18209)">
                    <circle cx="191.933" cy="719.354" r="3.947" style="fill:white;stroke:black;stroke-width:2.23px;"/>
                </g>
                <g transform="matrix(1,0,0,1,256.732,-28.1821)">
                    <circle cx="191.933" cy="719.354" r="3.947" style="fill:white;stroke:black;stroke-width:2.23px;"/>
                </g>
                <g transform="matrix(1,0,0,1,293.732,-8.18209)">
                    <circle cx="191.933" cy="719.354" r="3.947" style="fill:white;stroke:black;stroke-width:2.23px;"/>
                </g>
                <g transform="matrix(1,0,0,1,308.732,32.8179)">
                    <circle cx="191.933" cy="719.354" r="3.947" style="fill:white;stroke:black;stroke-width:2.23px;"/>
                </g>
                <path d="M415.027,844.01L415.027,808.125L396.861,786.694L396.861,757.916" style="fill:none;stroke:black;stroke-width:2.23px;"/>
                <path d="M431.62,843.975L431.62,809.3L423.642,797.504L423.642,735.12L411.276,733.805L411.276,715.262" style="fill:none;stroke:black;stroke-width:2.23px;"/>
                <g transform="matrix(-1,0,0,1,898.09,0)">
                    <path d="M398.398,844.754L398.398,807.628L382.47,793.991" style="fill:none;stroke:black;stroke-width:2.23px;"/>
                </g>
                <g transform="matrix(-1,0,0,1,897.09,0)">
                    <path d="M415.027,844.01L415.027,808.125L396.861,786.694L396.861,757.916" style="fill:none;stroke:black;stroke-width:2.23px;"/>
                </g>
                <g transform="matrix(-1,0,0,1,897.09,0)">
                    <path d="M431.62,843.975L431.62,809.3L423.642,797.504L423.642,735.12L411.276,733.805L411.276,715.262" style="fill:none;stroke:black;stroke-width:2.23px;"/>
                </g>
                <path d="M448.854,844.578L448.854,695.773" style="fill:none;stroke:black;stroke-width:2.23px;"/>
            </g>
        </g>
    </g>
    <g transform="matrix(-8.57496e-17,-1.4004,1.4004,-8.57496e-17,-846.657,1228.79)">
        <g>
            <g>
                <g transform="matrix(1,0,0,1,-1,0)">
                    <path d="M398.398,844.754L398.398,807.628L382.47,793.991" style="fill:none;stroke:black;stroke-width:2.23px;"/>
                </g>
                <g transform="matrix(1,0,0,1,187.732,72.8179)">
                    <circle cx="191.933" cy="719.354" r="3.947" style="fill:white;stroke:black;stroke-width:2.23px;"/>
                </g>
                <g transform="matrix(1,0,0,1,327.732,72.8179)">
                    <circle cx="191.933" cy="719.354" r="3.947" style="fill:white;stroke:black;stroke-width:2.23px;"/>
                </g>
                <g transform="matrix(1,0,0,1,204.732,33.8179)">
                    <circle cx="191.933" cy="719.354" r="3.947" style="fill:white;stroke:black;stroke-width:2.23px;"/>
                </g>
                <g transform="matrix(1,0,0,1,219.732,-8.18209)">
                    <circle cx="191.933" cy="719.354" r="3.947" style="fill:white;stroke:black;stroke-width:2.23px;"/>
                </g>
                <g transform="matrix(1,0,0,1,256.732,-28.1821)">
                    <circle cx="191.933" cy="719.354" r="3.947" style="fill:white;stroke:black;stroke-width:2.23px;"/>
                </g>
                <g transform="matrix(1,0,0,1,293.732,-8.18209)">
                    <circle cx="191.933" cy="719.354" r="3.947" style="fill:white;stroke:black;stroke-width:2.23px;"/>
                </g>
                <g transform="matrix(1,0,0,1,308.732,32.8179)">
                    <circle cx="191.933" cy="719.354" r="3.947" style="fill:white;stroke:black;stroke-width:2.23px;"/>
                </g>
                <path d="M415.027,844.01L415.027,808.125L396.861,786.694L396.861,757.916" style="fill:none;stroke:black;stroke-width:2.23px;"/>
                <path d="M431.62,843.975L431.62,809.3L423.642,797.504L423.642,735.12L411.276,733.805L411.276,715.262" style="fill:none;stroke:black;stroke-width:2.23px;"/>
                <g transform="matrix(-1,0,0,1,898.09,0)">
                    <path d="M398.398,844.754L398.398,807.628L382.47,793.991" style="fill:none;stroke:black;stroke-width:2.23px;"/>
                </g>
                <g transform="matrix(-1,0,0,1,897.09,0)">
                    <path d="M415.027,844.01L415.027,808.125L396.861,786.694L396.861,757.916" style="fill:none;stroke:black;stroke-width:2.23px;"/>
                </g>
                <g transform="matrix(-1,0,0,1,897.09,0)">
                    <path d="M431.62,843.975L431.62,809.3L423.642,797.504L423.642,735.12L411.276,733.805L411.276,715.262" style="fill:none;stroke:black;stroke-width:2.23px;"/>
                </g>
                <path d="M448.854,844.578L448.854,695.773" style="fill:none;stroke:black;stroke-width:2.23px;"/>
            </g>
        </g>
    </g>
    <g transform="matrix(2.54181,0,0,2.54181,-1158.45,-738.588)">
        <text x="483.186px" y="422.35px" style="font-family:'BigJohn', 'Big John';font-size:125px;">L</text>
    </g>
    <g transform="matrix(2.54181,0,0,2.54181,-830.232,-1284.72)">
        <text x="542.874px" y="938.526px" style="font-family:'SlimJoe', 'Slim Joe';font-size:125px;fill:white;">G</text>
    </g>
</svg>
