<?xml version="1.0" encoding="utf-8"?>
<!-- Generator: Adobe Illustrator 16.0.0, SVG Export Plug-In . SVG Version: 6.00 Build 0)  -->
<!DOCTYPE svg PUBLIC "-//W3C//DTD SVG 1.1//EN" "http://www.w3.org/Graphics/SVG/1.1/DTD/svg11.dtd">
<svg version="1.1" id="Layer_1" xmlns="http://www.w3.org/2000/svg" xmlns:xlink="http://www.w3.org/1999/xlink" x="0px" y="0px"
	 width="216px" height="288px" viewBox="0 0 216 288" enable-background="new 0 0 216 288" xml:space="preserve">
<text transform="matrix(1 0 0 1 4.9883 33.0049)"><tspan x="0" y="0" fill="#FFFFFF" font-family="'Helvetica'" font-size="6">Saturday, November 3, 2017</tspan><tspan x="0" y="8.4" fill="#FFFFFF" font-family="'Helvetica'" font-size="7">3:51 pm</tspan></text>
<text transform="matrix(1 0 0 1 65.9883 12.2549)" fill="#FFFFFF" font-family="'Helvetica'" font-size="10">Wow, you look hot!</text>
<g>
	<line fill="none" stroke="#FFFFFF" stroke-width="0.5" stroke-miterlimit="10" x1="4.738" y1="56.755" x2="34.738" y2="56.755"/>
	<text transform="matrix(1 0 0 1 4.7383 55.2549)" fill="#FFFFFF" font-family="'Helvetica'" font-size="4">MY CALENDAR</text>
	<rect x="4.738" y="62.505" fill="#FFFFFF" width="2.25" height="2.25"/>
	<rect x="4.738" y="71.505" fill="#FFFFFF" width="2.25" height="2.25"/>
	<rect x="4.738" y="81.505" fill="#FFFFFF" width="2.25" height="2.25"/>
	<rect x="4.738" y="90.505" fill="#FFFFFF" width="2.25" height="2.25"/>
	<rect x="4.738" y="100.505" fill="#FFFFFF" width="2.25" height="2.25"/>
	<g>
		<text transform="matrix(1 0 0 1 9.9883 64.7549)"><tspan x="0" y="0" fill="#FFFFFF" font-family="'Helvetica'" font-size="4">Meeting with John Doe</tspan><tspan x="0" y="9.6" fill="#FFFFFF" font-family="'Helvetica'" font-size="4">Project Due</tspan><tspan x="0" y="19.2" fill="#FFFFFF" font-family="'Helvetica'" font-size="4">Networking Event</tspan><tspan x="0" y="28.8" fill="#FFFFFF" font-family="'Helvetica'" font-size="4">Mary’s Birthday</tspan><tspan x="0" y="38.4" fill="#FFFFFF" font-family="'Helvetica'" font-size="4">Quartlerly Review Time</tspan></text>
		<text transform="matrix(1 0 0 1 65.0059 64.7549)"><tspan x="0" y="0" fill="#FFFFFF" font-family="'Helvetica'" font-size="4">In 2 days</tspan><tspan x="0" y="9.6" fill="#FFFFFF" font-family="'Helvetica'" font-size="4">In 3 days</tspan><tspan x="0" y="19.2" fill="#FFFFFF" font-family="'Helvetica'" font-size="4">In 4 days</tspan><tspan x="0" y="28.8" fill="#FFFFFF" font-family="'Helvetica'" font-size="4">In 4 days</tspan><tspan x="0" y="38.4" fill="#FFFFFF" font-family="'Helvetica'" font-size="4">In 5 days</tspan></text>
	</g>
</g>
<text transform="matrix(1 0 0 1 4.4883 131.0049)" fill="#FFFFFF" font-family="'Helvetica'" font-size="6">Current BTC Price: $7294.02</text>
<text transform="matrix(1 0 0 1 24.7383 282.7549)" fill="#FFFFFF" font-family="'Helvetica'" font-size="6">The iPhone X is Cool. That Doesn’t Mean You Are Ready for it.</text>
<text transform="matrix(1 0 0 1 81.2383 273.7549)" fill="#FFFFFF" font-family="'Helvetica'" font-size="4">New York Times, last 8 hours:</text>
<g>
	<g>
		<g>
			<circle fill="none" stroke="#FFFFFF" stroke-width="0.5" stroke-miterlimit="10" cx="173.384" cy="29.834" r="3.402"/>
			
				<line fill="none" stroke="#FFFFFF" stroke-width="0.5" stroke-miterlimit="10" x1="163.125" y1="33.737" x2="169.153" y2="31.39"/>
			
				<line fill="none" stroke="#FFFFFF" stroke-width="0.5" stroke-miterlimit="10" x1="177.622" y1="28.384" x2="183.65" y2="26.038"/>
			
				<line fill="none" stroke="#FFFFFF" stroke-width="0.5" stroke-miterlimit="10" x1="177.489" y1="40.052" x2="175.143" y2="34.023"/>
			
				<line fill="none" stroke="#FFFFFF" stroke-width="0.5" stroke-miterlimit="10" x1="171.632" y1="25.751" x2="169.285" y2="19.723"/>
			
				<line fill="none" stroke="#FFFFFF" stroke-width="0.5" stroke-miterlimit="10" x1="171.428" y1="33.868" x2="168.824" y2="39.79"/>
			<line fill="none" stroke="#FFFFFF" stroke-width="0.5" stroke-miterlimit="10" x1="177.6" y1="19.83" x2="174.996" y2="25.752"/>
			
				<line fill="none" stroke="#FFFFFF" stroke-width="0.5" stroke-miterlimit="10" x1="169.185" y1="27.987" x2="163.262" y2="25.384"/>
			
				<line fill="none" stroke="#FFFFFF" stroke-width="0.5" stroke-miterlimit="10" x1="183.573" y1="34.312" x2="177.65" y2="31.709"/>
		</g>
		<text transform="matrix(1 0 0 1 187.7383 39.8286)" fill="#FFFFFF" font-family="'Helvetica'" font-size="17">75</text>
		<circle fill="none" stroke="#FFFFFF" stroke-width="0.5" stroke-miterlimit="10" cx="209.384" cy="25.814" r="1.438"/>
		<g>
			<path fill="none" stroke="#FFFFFF" stroke-width="0.5" stroke-miterlimit="10" d="M168.417,48.588h13.429
				c0,0,5.251,0.044,0-5.437"/>
			<path fill="none" stroke="#FFFFFF" stroke-width="0.5" stroke-miterlimit="10" d="M168.417,49.904h11.061
				c0,0,5.777-0.073,0.033,4.473"/>
		</g>
		<text transform="matrix(1 0 0 1 187.7383 49.7554)" fill="#FFFFFF" font-family="'Helvetica'" font-size="6">2 mph</text>
	</g>
	<text transform="matrix(1 0 0 1 169.0723 60.2549)" fill="#FFFFFF" font-family="'Helvetica'" font-size="4">WEATHER</text>
	
		<line fill="none" stroke="#FFFFFF" stroke-width="0.5" stroke-miterlimit="10" x1="148.238" y1="62.505" x2="210.738" y2="62.505"/>
	<text transform="matrix(1 0 0 1 148.2383 66.9214)"><tspan x="0" y="0" fill="#FFFFFF" font-family="'Helvetica'" font-size="4">Sat</tspan><tspan x="0" y="4.8" fill="#FFFFFF" font-family="'Helvetica'" font-size="4">Sun</tspan><tspan x="0" y="9.6" fill="#FFFFFF" font-family="'Helvetica'" font-size="4">Mon</tspan><tspan x="0" y="14.4" fill="#FFFFFF" font-family="'Helvetica'" font-size="4">Tues</tspan><tspan x="0" y="19.2" fill="#FFFFFF" font-family="'Helvetica'" font-size="4">Wed</tspan><tspan x="0" y="24" fill="#FFFFFF" font-family="'Helvetica'" font-size="4">Thurs</tspan><tspan x="0" y="28.8" fill="#FFFFFF" font-family="'Helvetica'" font-size="4">Fri</tspan></text>
	<text transform="matrix(1 0 0 1 185.7383 67.2554)"><tspan x="0" y="0" fill="#FFFFFF" font-family="'Helvetica'" font-size="4">52        45</tspan><tspan x="0" y="4.8" fill="#FFFFFF" font-family="'Helvetica'" font-size="4">58        56</tspan><tspan x="0" y="9.6" fill="#FFFFFF" font-family="'Helvetica'" font-size="4">69        47</tspan><tspan x="0" y="14.4" fill="#FFFFFF" font-family="'Helvetica'" font-size="4">51        39</tspan><tspan x="0" y="19.2" fill="#FFFFFF" font-family="'Helvetica'" font-size="4">47        33</tspan><tspan x="0" y="24" fill="#FFFFFF" font-family="'Helvetica'" font-size="4">50        32</tspan><tspan x="0" y="28.8" fill="#FFFFFF" font-family="'Helvetica'" font-size="4">48        33</tspan></text>
</g>
<text transform="matrix(1 0 0 1 173.1387 115.2549)" fill="#FFFFFF" font-family="'Helvetica'" font-size="4">EMAIL</text>
<line fill="none" stroke="#FFFFFF" stroke-width="0.5" stroke-miterlimit="10" x1="148.238" y1="117.255" x2="211.038" y2="117.255"/>
<text transform="matrix(1 0 0 1 147.9883 123.2549)"><tspan x="0" y="0" fill="#FFFFFF" font-family="'Helvetica'" font-size="4">John Doe: Project Proposal</tspan><tspan x="0" y="9.6" fill="#FFFFFF" font-family="'Helvetica'" font-size="4">Mary Doe: Birthday Invitation</tspan><tspan x="0" y="19.2" fill="#FFFFFF" font-family="'Helvetica'" font-size="4">Human Resource: Review</tspan><tspan x="0" y="28.8" fill="#FFFFFF" font-family="'Helvetica'" font-size="4">Masschallenge: Networking Event</tspan></text>
<rect fill="none" width="216" height="288"/>
</svg>
