<?xml version="1.0" encoding="utf-8"?>
<!-- Generator: Adobe Illustrator 16.0.0, SVG Export Plug-In . SVG Version: 6.00 Build 0)  -->
<!DOCTYPE svg PUBLIC "-//W3C//DTD SVG 1.1//EN" "http://www.w3.org/Graphics/SVG/1.1/DTD/svg11.dtd">
<svg version="1.1" id="Layer_1" xmlns="http://www.w3.org/2000/svg" xmlns:xlink="http://www.w3.org/1999/xlink" x="0px" y="0px"
	 width="601.333px" height="520px" viewBox="0 0 601.333 520" enable-background="new 0 0 601.333 520" xml:space="preserve">
<g>
	
		<image overflow="visible" opacity="0.29" width="227" height="295" xlink:href="DF29E9B7297F0D85.png"  transform="matrix(1 0 0 1 85.5337 305.9199)">
	</image>
	<g>
		
			<image overflow="visible" opacity="0.5" width="101" height="170" xlink:href="DF29E9B7297F0D87.png"  transform="matrix(1 0 0 1 145.3335 368.7197)">
		</image>
		<g>
			<path fill="#965F26" d="M185.648,377.127h38.327l-60.491,132.588c0,0-9.175,14.601-9.475,0L185.648,377.127z"/>
		</g>
	</g>
</g>
<g>
	
		<image overflow="visible" opacity="0.29" width="226" height="295" xlink:href="DF29E9B7297F0D82.png"  transform="matrix(1 0 0 1 332.5337 305.9199)">
	</image>
	<g>
		
			<image overflow="visible" opacity="0.5" width="101" height="170" xlink:href="DF29E9B7297F0D83.png"  transform="matrix(1 0 0 1 390.3335 368.7197)">
		</image>
		<g>
			<path fill="#965F26" d="M437.507,377.127h-38.326l60.491,132.588c0,0,9.175,14.601,9.475,0L437.507,377.127z"/>
		</g>
	</g>
</g>
<path fill="#56567B" stroke="#56567B" stroke-miterlimit="10" d="M7.923,139.754L68.1,338.922c0,0,17.01,34.826,61.354,37.863
	l346.882-0.402c0,0,42.248-6.008,71.971-47.963l46.226-184.973c0,0-3.336-15.784-24.324-17.609H38.2
	C38.2,125.838,1.613,126.565,7.923,139.754z"/>
<g>
	
		<image overflow="visible" opacity="0.5" width="619" height="270" xlink:href="DF29E9B7297F0D8D.png"  transform="matrix(1 0 0 1 -8.6665 129.7197)">
	</image>
	<g>
		<path fill="#4F4F7A" d="M7.923,139.754l43.705,166.238c0,0,19.794,75.283,89.831,70.953l333.688-0.328
			c0,0,72.687-4.242,84.187-66.367l34.6-165.324c0,0-27.166-13.542-53.697,10.038c-39.234,34.87-53.839,157.868-53.839,157.868
			l-367.751-0.912c0,0-9.312-101.503-49.312-166.92C62.984,134.616,7.923,139.754,7.923,139.754z"/>
		<path fill="none" stroke="#4F4F7A" stroke-miterlimit="10" d="M7.923,139.754l43.705,166.238c0,0,19.794,75.283,89.831,70.953
			l333.688-0.328c0,0,72.687-4.242,84.187-66.367l34.6-165.324c0,0-27.166-13.542-53.697,10.038
			c-39.234,34.87-53.839,157.868-53.839,157.868l-367.751-0.912c0,0-9.312-101.503-49.312-166.92
			C62.984,134.616,7.923,139.754,7.923,139.754z"/>
	</g>
</g>
<path fill="#4F4F7A" stroke="#4F4F7A" stroke-miterlimit="10" d="M113.399,317.605h378.894l31.476-107.697
	c0,0,3.265-56.787,0-83.678c0,0-2.666-112.591-74.906-117.04c0,0-254.248-1.141-269.233,0
	C148.987,11.016,91.27,42.27,86.251,137.302C86.251,137.302,79.742,183.167,113.399,317.605z"/>
<g>
	<path fill="#56567B" d="M144.496,238.518h337.032C481.528,238.518,303.876,179.485,144.496,238.518z"/>
	<path fill="#56567B" d="M88.54,188.703c6.841,17.647,44.201,109.329,44.201,109.329l21.23-62.879L87.189,125.347
		C87.189,125.347,67.333,134,88.54,188.703z"/>
	<path fill="#56567B" d="M526.207,170.367c-1.868,6.177-31.176,122.375-31.176,122.375l-30.028-59.036l58.739-108.229
		C523.742,125.478,531.182,146.07,526.207,170.367z"/>
</g>
<path fill="#414178" d="M144.496,317.605h337.032c0,0,31.632-20.686,0-79.088H144.496
	C144.496,238.518,115.295,290.839,144.496,317.605z"/>
</svg>
